<?xml version="1.0" encoding="UTF-8"?><svg id="Layer_1" xmlns="http://www.w3.org/2000/svg" viewBox="0 0 300 300"><defs><style>.cls-1{fill:#00db91;}.cls-2{fill:#ffe87a;}.cls-3{fill:#ffb9d0;}.cls-4{fill:#ffc300;}.cls-5{fill:#ff80ab;}.cls-6{fill:#d0d2ff;}.cls-7{fill:#d76000;}.cls-8{fill:#196cff;}</style></defs><circle class="cls-8" cx="150" cy="150" r="150"/><rect class="cls-4" x="143.57" y="141.11" width="17.96" height="56"/><rect class="cls-4" x="134.59" y="194.86" width="35.93" height="17.95"/><rect class="cls-7" x="116.62" y="212.83" width="71.86" height="17.95"/><path class="cls-4" d="m192.79,105.91l11.69,6.48c3.79-7.12,11.29-11.97,19.93-11.97v-13.36c-13.66,0-25.55,7.62-31.62,18.85Z"/><path class="cls-4" d="m188.48,122.99h13.36c0-3.83.95-7.44,2.64-10.6l-11.69-6.48c-2.75,5.08-4.31,10.9-4.31,17.08Z"/><path class="cls-4" d="m112.31,105.91l-11.69,6.48c-3.79-7.12-11.29-11.97-19.93-11.97v-13.36c13.66,0,25.55,7.62,31.62,18.85Z"/><path class="cls-4" d="m116.62,122.99h-13.36c0-3.83-.95-7.44-2.64-10.6l11.69-6.48c2.75,5.08,4.31,10.9,4.31,17.08Z"/><path class="cls-4" d="m116.62,69.09v54.22h0c.18,19.69,16.19,35.6,35.92,35.6s35.74-15.91,35.92-35.6h0v-54.22h-71.86Z"/><path class="cls-3" d="m220.64,135.89c4.66,3.53,11.16,2.74,14.84-1.81,1.17,9.61,2.34,19.22,3.51,28.83-3.68,4.55-10.18,5.34-14.84,1.81-1.17-9.61-2.34-19.22-3.51-28.83Z"/><path class="cls-5" d="m176.09,109.83c4.91,1.79,9.39,7.21,10.22,12.37,4.85-4.01,9.7-8.01,14.55-12.02-.83-5.16-5.31-10.58-10.22-12.37-4.85,4.01-9.7,8.01-14.55,12.02Z"/><path class="cls-5" d="m40.38,100.77c5.5,2.87,13.1,1.57,17.34-2.96,1.5,8.8.24,17.88-3.12,28.46-4.79,2.58-4.55,2.48-9.73.89-1.5-8.8-3-17.6-4.5-26.39Z"/><path class="cls-2" d="m197.79,205.87c4.75-5.05,13.69-7.66,20.41-5.98-2.34-8-4.69-16.01-7.03-24.01-6.72-1.69-15.66.93-20.41,5.98,2.34,8,4.69,16.01,7.03,24.01Z"/><path class="cls-2" d="m219.83,51.08c-4.58-.84-9.32-4.92-10.82-9.33-5.31,3.63-9.62,11.06-8.31,17.15,0,0,2.41,2.39,6.99,3.22,0-7.06,4.57-7.42,12.15-11.05Z"/><path class="cls-3" d="m102.16,193.85c-.13,6.21,4.4,12.44,10.35,14.23-7.22,5.25-14.44,10.5-21.66,15.74-5.94-1.79-10.48-8.03-10.35-14.23,7.22-5.25,14.44-10.5,21.66-15.74Z"/><path class="cls-1" d="m253.98,98.75c.4,5.74,5.11,11.11,10.75,12.26-6.22,5.45-12.44,10.9-18.66,16.36-5.64-1.15-10.34-6.52-10.75-12.26,6.22-5.45,12.44-10.9,18.66-16.36Z"/><path class="cls-6" d="m68.24,175.27c-2.07-5.85-8.52-10.08-14.71-9.65,4.9-7.46,9.79-14.92,14.69-22.38,6.19-.43,12.64,3.8,14.71,9.65-4.9,7.46-9.79,14.92-14.69,22.38Z"/><path class="cls-1" d="m102.2,38.81c-3.5,5.51-6.23,4.98-12.75,4.61,3.59,6.99,7.69,14.38,16.01,21.64,1.35.07,4.02.22,7.51-5.29-3.59-6.99-7.18-13.97-10.77-20.96Z"/></svg>