<?xml version="1.0" encoding="UTF-8"?><svg id="Layer_1" xmlns="http://www.w3.org/2000/svg" viewBox="0 0 300 300"><defs><style>.cls-1{fill:#00da77;}.cls-2{fill:#0069ff;}.cls-3{fill:#ffb800;}.cls-4{fill:#ffc500;}.cls-5{fill:#ff1d2e;}.cls-6{fill:#ff6aa0;}.cls-7{fill:#8c8df8;}.cls-8{fill:#da5e00;}.cls-9{fill:#0f1736;}</style></defs><circle class="cls-9" cx="150" cy="150" r="150"/><rect class="cls-7" x="147.38" y="114.6" width="67" height="21.1" rx="10.55" ry="10.55" transform="translate(306.03 -55.73) rotate(90)"/><rect class="cls-7" x="150.41" y="201.28" width="103.08" height="21.1" rx="10.55" ry="10.55" transform="translate(403.89 423.67) rotate(-180)"/><rect class="cls-5" x="199.64" y="95.15" width="28.09" height="21.1" rx="10.55" ry="10.55" transform="translate(319.38 -107.98) rotate(90)"/><rect class="cls-1" x="201.94" y="127.17" width="62.79" height="13.6" rx="6.8" ry="6.8" transform="translate(466.68 267.94) rotate(180)"/><rect class="cls-2" x="135.14" y="130.22" width="34.56" height="21.1" rx="10.55" ry="10.55" transform="translate(293.19 -11.65) rotate(90)"/><rect class="cls-7" x="51.19" y="84.34" width="34.56" height="21.1" rx="10.55" ry="10.55" transform="translate(163.36 26.42) rotate(90)"/><rect class="cls-6" x="79.02" y="169.56" width="123.25" height="23.54" rx="11.77" ry="11.77" transform="translate(281.29 362.65) rotate(-180)"/><rect class="cls-8" x="81.56" y="145.69" width="46.22" height="16.22" rx="8.11" ry="8.11"/><rect class="cls-1" x="45.82" y="121.81" width="81.05" height="16.22" rx="8.11" ry="8.11"/><rect class="cls-3" x="86.78" y="99.3" width="68.86" height="12.87" rx="6.43" ry="6.43"/><rect class="cls-3" x="70.11" y="205.4" width="68.86" height="12.87" rx="6.43" ry="6.43"/><circle class="cls-4" cx="235.13" cy="169.88" r="24.31"/><path class="cls-5" d="m244.86,170.96l7.01-7.01c1.83-1.83,1.83-4.81,0-6.64-1.83-1.83-4.81-1.83-6.64,0l-.37.37-.37-.37c-1.83-1.83-4.81-1.83-6.64,0-1.83,1.83-1.83,4.81,0,6.64l7.01,7.01Z"/><path class="cls-5" d="m224.71,171.33l7.01-7.01c1.83-1.83,1.83-4.81,0-6.64-1.83-1.83-4.81-1.83-6.64,0l-.37.37-.37-.37c-1.83-1.83-4.81-1.83-6.64,0-1.83,1.83-1.83,4.81,0,6.64l7.01,7.01Z"/><path class="cls-9" d="m222.08,174.71c0,7.19,5.83,13.02,13.02,13.02,7.19,0,13.02-5.83,13.02-13.02h-26.03Z"/><path class="cls-5" d="m74.39,172.76c-.1,3.54-1.48,6.93-3.9,9.52-2.99,3.29-6.24,6.34-9.71,9.12l-4.46,3.83c-.42.37-.96.58-1.51.58s-1.1-.2-1.51-.58l-4.46-3.83c-3.46-2.78-6.7-5.83-9.68-9.12-2.42-2.59-3.8-5.98-3.9-9.52-.04-3.05,1.06-6.01,3.1-8.28.98-1.09,2.18-1.96,3.52-2.56,1.34-.6,2.78-.91,4.25-.92,2.23-.01,4.4.74,6.14,2.12.97.74,1.84,1.61,2.56,2.59.7-.98,1.54-1.85,2.49-2.59,1.77-1.4,3.96-2.15,6.21-2.12,1.48,0,2.94.31,4.28.91,1.35.6,2.56,1.48,3.55,2.57,2.01,2.29,3.09,5.24,3.03,8.28Z"/></svg>