<?xml version="1.0" encoding="UTF-8"?><svg id="Layer_1" xmlns="http://www.w3.org/2000/svg" viewBox="0 0 300 300"><defs><style>.cls-1{fill:#00de88;}.cls-2{fill:#00db91;}.cls-3{fill:#006d41;}.cls-4{fill:#969cf5;}.cls-5{fill:#0d6b45;}</style></defs><circle class="cls-4" cx="150" cy="150" r="150"/><path class="cls-3" d="m150.07,69.09h-81.16c-11.19,0-20.25,9.07-20.25,20.25v60.76c0,11.19,9.07,20.25,20.25,20.25h20.25l20.25,20.25v-20.25h40.65c11.19,0,20.25-9.07,20.25-20.25v-60.76c0-11.19-9.07-20.25-20.25-20.25Z"/><path class="cls-1" d="m149.93,129.86h81.16c11.19,0,20.25,9.07,20.25,20.25v60.76c0,11.19-9.07,20.25-20.25,20.25h-20.25s-20.25,20.25-20.25,20.25v-20.25h-40.65c-11.19,0-20.25-9.07-20.25-20.25v-60.76c0-11.19,9.07-20.25,20.25-20.25Z"/><path class="cls-2" d="m116.15,107.65c0-3.56-2.52-5.61-7.01-5.61-1.45-.05-2.88.26-4.18.9-1.3.64-2.43,1.58-3.28,2.75-.57.79-1.41,1.35-2.36,1.57-.95.22-1.95.08-2.81-.39l-2.38-1.37c-.47-.27-.87-.64-1.19-1.07-.32-.44-.54-.93-.66-1.46-.12-.53-.13-1.07-.03-1.6s.31-1.03.62-1.48c1.89-2.63,4.4-4.75,7.31-6.19,2.91-1.43,6.12-2.13,9.36-2.03,8.73,0,17.28,5.25,17.28,15.21s-10.1,14.03-12.48,19.64c-.3.69-.79,1.27-1.42,1.67-.63.4-1.36.61-2.11.6h-2.55c-.69,0-1.37-.18-1.97-.53-.6-.35-1.1-.85-1.44-1.45s-.52-1.28-.52-1.98c0-.69.19-1.37.54-1.97,3.51-5.95,11.31-9.29,11.31-15.21Zm-14.2,33.67c-.02-1.3.34-2.58,1.05-3.68.71-1.09,1.73-1.95,2.92-2.47,1.2-.51,2.52-.66,3.8-.42,1.28.24,2.46.86,3.39,1.77.93.91,1.57,2.08,1.83,3.36.26,1.28.14,2.6-.35,3.81-.49,1.21-1.33,2.24-2.42,2.96-1.08.73-2.36,1.11-3.66,1.11-1.74,0-3.41-.69-4.64-1.92-1.23-1.23-1.92-2.9-1.92-4.64v.11Z"/><path class="cls-5" d="m183.94,199.97c-.02-1.3.34-2.58,1.05-3.68.71-1.09,1.73-1.95,2.92-2.47,1.2-.51,2.52-.66,3.8-.42,1.28.24,2.46.86,3.39,1.77.93.91,1.57,2.08,1.83,3.36.26,1.28.14,2.6-.35,3.81-.49,1.21-1.33,2.24-2.42,2.96-1.08.73-2.36,1.11-3.66,1.11-1.74,0-3.41-.69-4.64-1.92-1.23-1.23-1.92-2.9-1.92-4.64v.11Zm8.93-12.23h-4.74c-1.66,0-3-1.34-3-3v-31.74c0-1.66,1.34-3,3-3h4.74c1.66,0,3,1.34,3,3v31.74c0,1.66-1.34,3-3,3Z"/></svg>